<mxfile host="Electron" agent="Mozilla/5.0 (X11; Linux x86_64) AppleWebKit/537.36 (KHTML, like Gecko) draw.io/26.0.9 Chrome/128.0.6613.186 Electron/32.3.0 Safari/537.36" version="26.0.9" pages="6">
  <diagram name="1" id="raGk_D8FTLXwgUmbc4jt">
    <mxGraphModel dx="479" dy="602" grid="1" gridSize="10" guides="1" tooltips="1" connect="1" arrows="1" fold="1" page="1" pageScale="1" pageWidth="260" pageHeight="320" math="0" shadow="0">
      <root>
        <mxCell id="0" />
        <mxCell id="1" parent="0" />
        <mxCell id="jTd84X1G22GfpIwI3Wmg-1" style="edgeStyle=orthogonalEdgeStyle;rounded=0;orthogonalLoop=1;jettySize=auto;html=1;exitX=1;exitY=0.5;exitDx=0;exitDy=0;entryX=0;entryY=0.5;entryDx=0;entryDy=0;fillColor=#f5f5f5;strokeColor=#666666;strokeWidth=2;" parent="1" source="zCmTgFsGxIaxcytd8qIg-1" target="zCmTgFsGxIaxcytd8qIg-2" edge="1">
          <mxGeometry relative="1" as="geometry" />
        </mxCell>
        <mxCell id="7hK9Z41RGyeXFMQ4H9im-3" style="edgeStyle=orthogonalEdgeStyle;rounded=0;orthogonalLoop=1;jettySize=auto;html=1;exitX=0.5;exitY=0;exitDx=0;exitDy=0;entryX=0.5;entryY=0;entryDx=0;entryDy=0;fillColor=#d5e8d4;strokeColor=#82b366;" edge="1" parent="1" source="zCmTgFsGxIaxcytd8qIg-1" target="7hK9Z41RGyeXFMQ4H9im-2">
          <mxGeometry relative="1" as="geometry">
            <Array as="points">
              <mxPoint x="80" y="40" />
              <mxPoint x="40" y="40" />
              <mxPoint x="40" y="200" />
              <mxPoint x="80" y="200" />
            </Array>
          </mxGeometry>
        </mxCell>
        <mxCell id="zCmTgFsGxIaxcytd8qIg-1" value="1" style="text;html=1;align=center;verticalAlign=middle;whiteSpace=wrap;rounded=0;fillColor=#d5e8d4;strokeColor=#82b366;fontSize=14;fontColor=#333333;" parent="1" vertex="1">
          <mxGeometry x="60" y="60" width="40" height="40" as="geometry" />
        </mxCell>
        <mxCell id="jTd84X1G22GfpIwI3Wmg-2" style="edgeStyle=orthogonalEdgeStyle;rounded=0;orthogonalLoop=1;jettySize=auto;html=1;exitX=1;exitY=0.5;exitDx=0;exitDy=0;entryX=0;entryY=0.5;entryDx=0;entryDy=0;fillColor=#f5f5f5;strokeColor=#666666;strokeWidth=2;" parent="1" source="zCmTgFsGxIaxcytd8qIg-2" target="zCmTgFsGxIaxcytd8qIg-3" edge="1">
          <mxGeometry relative="1" as="geometry">
            <mxPoint x="200" y="80" as="sourcePoint" />
          </mxGeometry>
        </mxCell>
        <mxCell id="zCmTgFsGxIaxcytd8qIg-2" value="2" style="text;html=1;align=center;verticalAlign=middle;whiteSpace=wrap;rounded=0;fillColor=#f5f5f5;strokeColor=#666666;fontSize=14;fontColor=#333333;" parent="1" vertex="1">
          <mxGeometry x="120" y="60" width="40" height="40" as="geometry" />
        </mxCell>
        <mxCell id="zCmTgFsGxIaxcytd8qIg-3" value="4" style="text;html=1;align=center;verticalAlign=middle;whiteSpace=wrap;rounded=0;fillColor=#f5f5f5;strokeColor=#666666;fontSize=14;fontColor=#333333;" parent="1" vertex="1">
          <mxGeometry x="180" y="60" width="40" height="40" as="geometry" />
        </mxCell>
        <mxCell id="AQBsLTuEEX6UYwU5JBV7-1" value="list1" style="text;html=1;align=center;verticalAlign=middle;whiteSpace=wrap;rounded=0;fontSize=10;" parent="1" vertex="1">
          <mxGeometry x="60" y="100" width="160" height="20" as="geometry" />
        </mxCell>
        <mxCell id="9O1mxxfFyx1soMVcyxZJ-1" style="edgeStyle=orthogonalEdgeStyle;rounded=0;orthogonalLoop=1;jettySize=auto;html=1;exitX=1;exitY=0.5;exitDx=0;exitDy=0;entryX=0;entryY=0.5;entryDx=0;entryDy=0;fillColor=#f5f5f5;strokeColor=#666666;strokeWidth=2;" parent="1" source="9O1mxxfFyx1soMVcyxZJ-2" target="9O1mxxfFyx1soMVcyxZJ-4" edge="1">
          <mxGeometry relative="1" as="geometry" />
        </mxCell>
        <mxCell id="9O1mxxfFyx1soMVcyxZJ-2" value="1" style="text;html=1;align=center;verticalAlign=middle;whiteSpace=wrap;rounded=0;fillColor=#dae8fc;strokeColor=#6c8ebf;fontSize=14;fontColor=#333333;" parent="1" vertex="1">
          <mxGeometry x="60" y="140" width="40" height="40" as="geometry" />
        </mxCell>
        <mxCell id="9O1mxxfFyx1soMVcyxZJ-3" style="edgeStyle=orthogonalEdgeStyle;rounded=0;orthogonalLoop=1;jettySize=auto;html=1;exitX=1;exitY=0.5;exitDx=0;exitDy=0;entryX=0;entryY=0.5;entryDx=0;entryDy=0;fillColor=#f5f5f5;strokeColor=#666666;strokeWidth=2;" parent="1" source="9O1mxxfFyx1soMVcyxZJ-4" target="9O1mxxfFyx1soMVcyxZJ-5" edge="1">
          <mxGeometry relative="1" as="geometry">
            <mxPoint x="200" y="160" as="sourcePoint" />
          </mxGeometry>
        </mxCell>
        <mxCell id="9O1mxxfFyx1soMVcyxZJ-4" value="3" style="text;html=1;align=center;verticalAlign=middle;whiteSpace=wrap;rounded=0;fillColor=#f5f5f5;strokeColor=#666666;fontSize=14;fontColor=#333333;" parent="1" vertex="1">
          <mxGeometry x="120" y="140" width="40" height="40" as="geometry" />
        </mxCell>
        <mxCell id="9O1mxxfFyx1soMVcyxZJ-5" value="4" style="text;html=1;align=center;verticalAlign=middle;whiteSpace=wrap;rounded=0;fillColor=#f5f5f5;strokeColor=#666666;fontSize=14;fontColor=#333333;" parent="1" vertex="1">
          <mxGeometry x="180" y="140" width="40" height="40" as="geometry" />
        </mxCell>
        <mxCell id="7hK9Z41RGyeXFMQ4H9im-1" value="list2" style="text;html=1;align=center;verticalAlign=middle;whiteSpace=wrap;rounded=0;fontSize=10;" vertex="1" parent="1">
          <mxGeometry x="60" y="180" width="160" height="20" as="geometry" />
        </mxCell>
        <mxCell id="7hK9Z41RGyeXFMQ4H9im-2" value="1" style="text;html=1;align=center;verticalAlign=middle;whiteSpace=wrap;rounded=0;fillColor=#d5e8d4;strokeColor=#82b366;fontSize=14;fontColor=#333333;" vertex="1" parent="1">
          <mxGeometry x="60" y="220" width="40" height="40" as="geometry" />
        </mxCell>
        <mxCell id="7hK9Z41RGyeXFMQ4H9im-5" value="root" style="text;html=1;align=center;verticalAlign=middle;whiteSpace=wrap;rounded=0;fontSize=10;" vertex="1" parent="1">
          <mxGeometry x="60" y="260" width="40" height="20" as="geometry" />
        </mxCell>
      </root>
    </mxGraphModel>
  </diagram>
  <diagram name="2" id="fkAzctcN_5hKLY0FNa3m">
    <mxGraphModel dx="479" dy="602" grid="1" gridSize="10" guides="1" tooltips="1" connect="1" arrows="1" fold="1" page="1" pageScale="1" pageWidth="260" pageHeight="320" math="0" shadow="0">
      <root>
        <mxCell id="cw38NfJHLluVsukhfyXg-0" />
        <mxCell id="cw38NfJHLluVsukhfyXg-1" parent="cw38NfJHLluVsukhfyXg-0" />
        <mxCell id="cw38NfJHLluVsukhfyXg-2" style="edgeStyle=orthogonalEdgeStyle;rounded=0;orthogonalLoop=1;jettySize=auto;html=1;exitX=1;exitY=0.5;exitDx=0;exitDy=0;entryX=0;entryY=0.5;entryDx=0;entryDy=0;fillColor=#f5f5f5;strokeColor=#666666;strokeWidth=2;" edge="1" parent="cw38NfJHLluVsukhfyXg-1" source="cw38NfJHLluVsukhfyXg-4" target="cw38NfJHLluVsukhfyXg-6">
          <mxGeometry relative="1" as="geometry" />
        </mxCell>
        <mxCell id="cw38NfJHLluVsukhfyXg-3" style="edgeStyle=orthogonalEdgeStyle;rounded=0;orthogonalLoop=1;jettySize=auto;html=1;exitX=0.5;exitY=0;exitDx=0;exitDy=0;entryX=0.5;entryY=0;entryDx=0;entryDy=0;fillColor=#d5e8d4;strokeColor=#82b366;" edge="1" parent="cw38NfJHLluVsukhfyXg-1" source="cw38NfJHLluVsukhfyXg-10" target="5VlHmHLrL-WMpSwozJTj-0">
          <mxGeometry relative="1" as="geometry">
            <Array as="points">
              <mxPoint x="80" y="120" />
              <mxPoint x="40" y="120" />
              <mxPoint x="40" y="200" />
              <mxPoint x="140" y="200" />
            </Array>
          </mxGeometry>
        </mxCell>
        <mxCell id="cw38NfJHLluVsukhfyXg-4" value="2" style="text;html=1;align=center;verticalAlign=middle;whiteSpace=wrap;rounded=0;fillColor=#dae8fc;strokeColor=#6c8ebf;fontSize=14;fontColor=#333333;" vertex="1" parent="cw38NfJHLluVsukhfyXg-1">
          <mxGeometry x="60" y="60" width="40" height="40" as="geometry" />
        </mxCell>
        <mxCell id="cw38NfJHLluVsukhfyXg-6" value="4" style="text;html=1;align=center;verticalAlign=middle;whiteSpace=wrap;rounded=0;fillColor=#f5f5f5;strokeColor=#666666;fontSize=14;fontColor=#333333;" vertex="1" parent="cw38NfJHLluVsukhfyXg-1">
          <mxGeometry x="120" y="60" width="40" height="40" as="geometry" />
        </mxCell>
        <mxCell id="cw38NfJHLluVsukhfyXg-8" value="list1" style="text;html=1;align=center;verticalAlign=middle;whiteSpace=wrap;rounded=0;fontSize=10;" vertex="1" parent="cw38NfJHLluVsukhfyXg-1">
          <mxGeometry x="60" y="100" width="100" height="20" as="geometry" />
        </mxCell>
        <mxCell id="cw38NfJHLluVsukhfyXg-9" style="edgeStyle=orthogonalEdgeStyle;rounded=0;orthogonalLoop=1;jettySize=auto;html=1;exitX=1;exitY=0.5;exitDx=0;exitDy=0;entryX=0;entryY=0.5;entryDx=0;entryDy=0;fillColor=#f5f5f5;strokeColor=#666666;strokeWidth=2;" edge="1" parent="cw38NfJHLluVsukhfyXg-1" source="cw38NfJHLluVsukhfyXg-10" target="cw38NfJHLluVsukhfyXg-12">
          <mxGeometry relative="1" as="geometry" />
        </mxCell>
        <mxCell id="cw38NfJHLluVsukhfyXg-10" value="1" style="text;html=1;align=center;verticalAlign=middle;whiteSpace=wrap;rounded=0;fillColor=#d5e8d4;strokeColor=#82b366;fontSize=14;fontColor=#333333;" vertex="1" parent="cw38NfJHLluVsukhfyXg-1">
          <mxGeometry x="60" y="140" width="40" height="40" as="geometry" />
        </mxCell>
        <mxCell id="cw38NfJHLluVsukhfyXg-11" style="edgeStyle=orthogonalEdgeStyle;rounded=0;orthogonalLoop=1;jettySize=auto;html=1;exitX=1;exitY=0.5;exitDx=0;exitDy=0;entryX=0;entryY=0.5;entryDx=0;entryDy=0;fillColor=#f5f5f5;strokeColor=#666666;strokeWidth=2;" edge="1" parent="cw38NfJHLluVsukhfyXg-1" source="cw38NfJHLluVsukhfyXg-12" target="cw38NfJHLluVsukhfyXg-13">
          <mxGeometry relative="1" as="geometry">
            <mxPoint x="200" y="160" as="sourcePoint" />
          </mxGeometry>
        </mxCell>
        <mxCell id="cw38NfJHLluVsukhfyXg-12" value="3" style="text;html=1;align=center;verticalAlign=middle;whiteSpace=wrap;rounded=0;fillColor=#f5f5f5;strokeColor=#666666;fontSize=14;fontColor=#333333;" vertex="1" parent="cw38NfJHLluVsukhfyXg-1">
          <mxGeometry x="120" y="140" width="40" height="40" as="geometry" />
        </mxCell>
        <mxCell id="cw38NfJHLluVsukhfyXg-13" value="4" style="text;html=1;align=center;verticalAlign=middle;whiteSpace=wrap;rounded=0;fillColor=#f5f5f5;strokeColor=#666666;fontSize=14;fontColor=#333333;" vertex="1" parent="cw38NfJHLluVsukhfyXg-1">
          <mxGeometry x="180" y="140" width="40" height="40" as="geometry" />
        </mxCell>
        <mxCell id="cw38NfJHLluVsukhfyXg-14" value="list2" style="text;html=1;align=center;verticalAlign=middle;whiteSpace=wrap;rounded=0;fontSize=10;" vertex="1" parent="cw38NfJHLluVsukhfyXg-1">
          <mxGeometry x="60" y="180" width="160" height="20" as="geometry" />
        </mxCell>
        <mxCell id="cw38NfJHLluVsukhfyXg-15" value="1" style="text;html=1;align=center;verticalAlign=middle;whiteSpace=wrap;rounded=0;fillColor=#f5f5f5;strokeColor=#666666;fontSize=14;fontColor=#333333;" vertex="1" parent="cw38NfJHLluVsukhfyXg-1">
          <mxGeometry x="60" y="220" width="40" height="40" as="geometry" />
        </mxCell>
        <mxCell id="cw38NfJHLluVsukhfyXg-16" value="root" style="text;html=1;align=center;verticalAlign=middle;whiteSpace=wrap;rounded=0;fontSize=10;" vertex="1" parent="cw38NfJHLluVsukhfyXg-1">
          <mxGeometry x="60" y="260" width="100" height="20" as="geometry" />
        </mxCell>
        <mxCell id="5VlHmHLrL-WMpSwozJTj-0" value="1" style="text;html=1;align=center;verticalAlign=middle;whiteSpace=wrap;rounded=0;fillColor=#d5e8d4;strokeColor=#82b366;fontSize=14;fontColor=#333333;" vertex="1" parent="cw38NfJHLluVsukhfyXg-1">
          <mxGeometry x="120" y="220" width="40" height="40" as="geometry" />
        </mxCell>
        <mxCell id="GnSsORY7JH4M9R1ERSh8-0" style="edgeStyle=orthogonalEdgeStyle;rounded=0;orthogonalLoop=1;jettySize=auto;html=1;exitX=1;exitY=0.5;exitDx=0;exitDy=0;fillColor=#f5f5f5;strokeColor=#666666;strokeWidth=2;entryX=0;entryY=0.5;entryDx=0;entryDy=0;" edge="1" parent="cw38NfJHLluVsukhfyXg-1" source="cw38NfJHLluVsukhfyXg-15" target="5VlHmHLrL-WMpSwozJTj-0">
          <mxGeometry relative="1" as="geometry">
            <mxPoint x="110" y="170" as="sourcePoint" />
            <mxPoint x="110" y="210" as="targetPoint" />
          </mxGeometry>
        </mxCell>
      </root>
    </mxGraphModel>
  </diagram>
  <diagram name="3" id="-ntdIuObVDNcW3a2bmWH">
    <mxGraphModel dx="411" dy="516" grid="1" gridSize="10" guides="1" tooltips="1" connect="1" arrows="1" fold="1" page="1" pageScale="1" pageWidth="260" pageHeight="320" math="0" shadow="0">
      <root>
        <mxCell id="JK1_rzkIHCxc88ZtThr4-0" />
        <mxCell id="JK1_rzkIHCxc88ZtThr4-1" parent="JK1_rzkIHCxc88ZtThr4-0" />
        <mxCell id="JK1_rzkIHCxc88ZtThr4-2" style="edgeStyle=orthogonalEdgeStyle;rounded=0;orthogonalLoop=1;jettySize=auto;html=1;exitX=1;exitY=0.5;exitDx=0;exitDy=0;entryX=0;entryY=0.5;entryDx=0;entryDy=0;fillColor=#f5f5f5;strokeColor=#666666;strokeWidth=2;" edge="1" parent="JK1_rzkIHCxc88ZtThr4-1" source="JK1_rzkIHCxc88ZtThr4-4" target="JK1_rzkIHCxc88ZtThr4-5">
          <mxGeometry relative="1" as="geometry" />
        </mxCell>
        <mxCell id="JK1_rzkIHCxc88ZtThr4-3" style="edgeStyle=orthogonalEdgeStyle;rounded=0;orthogonalLoop=1;jettySize=auto;html=1;exitX=0.5;exitY=0;exitDx=0;exitDy=0;entryX=0.5;entryY=0;entryDx=0;entryDy=0;fillColor=#d5e8d4;strokeColor=#82b366;" edge="1" parent="JK1_rzkIHCxc88ZtThr4-1" source="JK1_rzkIHCxc88ZtThr4-4" target="YRRhWOOsMMy2loB9VM8X-0">
          <mxGeometry relative="1" as="geometry">
            <Array as="points">
              <mxPoint x="80" y="40" />
              <mxPoint x="40" y="40" />
              <mxPoint x="40" y="200" />
              <mxPoint x="200" y="200" />
            </Array>
          </mxGeometry>
        </mxCell>
        <mxCell id="JK1_rzkIHCxc88ZtThr4-4" value="2" style="text;html=1;align=center;verticalAlign=middle;whiteSpace=wrap;rounded=0;fillColor=#d5e8d4;strokeColor=#82b366;fontSize=14;fontColor=#333333;" vertex="1" parent="JK1_rzkIHCxc88ZtThr4-1">
          <mxGeometry x="60" y="60" width="40" height="40" as="geometry" />
        </mxCell>
        <mxCell id="JK1_rzkIHCxc88ZtThr4-5" value="4" style="text;html=1;align=center;verticalAlign=middle;whiteSpace=wrap;rounded=0;fillColor=#f5f5f5;strokeColor=#666666;fontSize=14;fontColor=#333333;" vertex="1" parent="JK1_rzkIHCxc88ZtThr4-1">
          <mxGeometry x="120" y="60" width="40" height="40" as="geometry" />
        </mxCell>
        <mxCell id="JK1_rzkIHCxc88ZtThr4-6" value="list1" style="text;html=1;align=center;verticalAlign=middle;whiteSpace=wrap;rounded=0;fontSize=10;" vertex="1" parent="JK1_rzkIHCxc88ZtThr4-1">
          <mxGeometry x="60" y="100" width="100" height="20" as="geometry" />
        </mxCell>
        <mxCell id="JK1_rzkIHCxc88ZtThr4-7" style="edgeStyle=orthogonalEdgeStyle;rounded=0;orthogonalLoop=1;jettySize=auto;html=1;exitX=1;exitY=0.5;exitDx=0;exitDy=0;entryX=0;entryY=0.5;entryDx=0;entryDy=0;fillColor=#f5f5f5;strokeColor=#666666;strokeWidth=2;" edge="1" parent="JK1_rzkIHCxc88ZtThr4-1" source="JK1_rzkIHCxc88ZtThr4-8" target="JK1_rzkIHCxc88ZtThr4-10">
          <mxGeometry relative="1" as="geometry" />
        </mxCell>
        <mxCell id="JK1_rzkIHCxc88ZtThr4-8" value="3" style="text;html=1;align=center;verticalAlign=middle;whiteSpace=wrap;rounded=0;fillColor=#dae8fc;strokeColor=#6c8ebf;fontSize=14;fontColor=#333333;" vertex="1" parent="JK1_rzkIHCxc88ZtThr4-1">
          <mxGeometry x="60" y="140" width="40" height="40" as="geometry" />
        </mxCell>
        <mxCell id="JK1_rzkIHCxc88ZtThr4-10" value="4" style="text;html=1;align=center;verticalAlign=middle;whiteSpace=wrap;rounded=0;fillColor=#f5f5f5;strokeColor=#666666;fontSize=14;fontColor=#333333;" vertex="1" parent="JK1_rzkIHCxc88ZtThr4-1">
          <mxGeometry x="120" y="140" width="40" height="40" as="geometry" />
        </mxCell>
        <mxCell id="JK1_rzkIHCxc88ZtThr4-12" value="list2" style="text;html=1;align=center;verticalAlign=middle;whiteSpace=wrap;rounded=0;fontSize=10;" vertex="1" parent="JK1_rzkIHCxc88ZtThr4-1">
          <mxGeometry x="60" y="180" width="100" height="20" as="geometry" />
        </mxCell>
        <mxCell id="JK1_rzkIHCxc88ZtThr4-13" value="1" style="text;html=1;align=center;verticalAlign=middle;whiteSpace=wrap;rounded=0;fillColor=#f5f5f5;strokeColor=#666666;fontSize=14;fontColor=#333333;" vertex="1" parent="JK1_rzkIHCxc88ZtThr4-1">
          <mxGeometry x="60" y="220" width="40" height="40" as="geometry" />
        </mxCell>
        <mxCell id="JK1_rzkIHCxc88ZtThr4-14" value="root" style="text;html=1;align=center;verticalAlign=middle;whiteSpace=wrap;rounded=0;fontSize=10;" vertex="1" parent="JK1_rzkIHCxc88ZtThr4-1">
          <mxGeometry x="60" y="260" width="160" height="20" as="geometry" />
        </mxCell>
        <mxCell id="JK1_rzkIHCxc88ZtThr4-15" value="1" style="text;html=1;align=center;verticalAlign=middle;whiteSpace=wrap;rounded=0;fillColor=#f5f5f5;strokeColor=#666666;fontSize=14;fontColor=#333333;" vertex="1" parent="JK1_rzkIHCxc88ZtThr4-1">
          <mxGeometry x="120" y="220" width="40" height="40" as="geometry" />
        </mxCell>
        <mxCell id="JK1_rzkIHCxc88ZtThr4-16" style="edgeStyle=orthogonalEdgeStyle;rounded=0;orthogonalLoop=1;jettySize=auto;html=1;exitX=1;exitY=0.5;exitDx=0;exitDy=0;fillColor=#f5f5f5;strokeColor=#666666;strokeWidth=2;entryX=0;entryY=0.5;entryDx=0;entryDy=0;" edge="1" parent="JK1_rzkIHCxc88ZtThr4-1" source="JK1_rzkIHCxc88ZtThr4-13" target="JK1_rzkIHCxc88ZtThr4-15">
          <mxGeometry relative="1" as="geometry">
            <mxPoint x="110" y="170" as="sourcePoint" />
            <mxPoint x="110" y="210" as="targetPoint" />
          </mxGeometry>
        </mxCell>
        <mxCell id="YRRhWOOsMMy2loB9VM8X-0" value="2" style="text;html=1;align=center;verticalAlign=middle;whiteSpace=wrap;rounded=0;fillColor=#d5e8d4;strokeColor=#82b366;fontSize=14;fontColor=#333333;" vertex="1" parent="JK1_rzkIHCxc88ZtThr4-1">
          <mxGeometry x="180" y="220" width="40" height="40" as="geometry" />
        </mxCell>
        <mxCell id="hKQMbprKkgxsJ7ZzSGGo-0" style="edgeStyle=orthogonalEdgeStyle;rounded=0;orthogonalLoop=1;jettySize=auto;html=1;fillColor=#f5f5f5;strokeColor=#666666;strokeWidth=2;entryX=0;entryY=0.5;entryDx=0;entryDy=0;exitX=1;exitY=0.5;exitDx=0;exitDy=0;" edge="1" parent="JK1_rzkIHCxc88ZtThr4-1" source="JK1_rzkIHCxc88ZtThr4-15" target="YRRhWOOsMMy2loB9VM8X-0">
          <mxGeometry relative="1" as="geometry">
            <mxPoint x="170" y="250" as="sourcePoint" />
            <mxPoint x="130" y="250" as="targetPoint" />
          </mxGeometry>
        </mxCell>
      </root>
    </mxGraphModel>
  </diagram>
  <diagram name="4" id="efId-3v-Nc6F3Al1yjx0">
    <mxGraphModel dx="419" dy="527" grid="1" gridSize="10" guides="1" tooltips="1" connect="1" arrows="1" fold="1" page="1" pageScale="1" pageWidth="320" pageHeight="320" math="0" shadow="0">
      <root>
        <mxCell id="clmwfE0K63QgBJZTxzQz-0" />
        <mxCell id="clmwfE0K63QgBJZTxzQz-1" parent="clmwfE0K63QgBJZTxzQz-0" />
        <mxCell id="clmwfE0K63QgBJZTxzQz-3" style="edgeStyle=orthogonalEdgeStyle;rounded=0;orthogonalLoop=1;jettySize=auto;html=1;exitX=0.5;exitY=0;exitDx=0;exitDy=0;entryX=0.5;entryY=0;entryDx=0;entryDy=0;fillColor=#d5e8d4;strokeColor=#82b366;" edge="1" parent="clmwfE0K63QgBJZTxzQz-1" source="clmwfE0K63QgBJZTxzQz-8" target="IkyPmD7WuQSrqk3YRfKl-0">
          <mxGeometry relative="1" as="geometry">
            <Array as="points">
              <mxPoint x="80" y="120" />
              <mxPoint x="40" y="120" />
              <mxPoint x="40" y="200" />
              <mxPoint x="260" y="200" />
            </Array>
          </mxGeometry>
        </mxCell>
        <mxCell id="clmwfE0K63QgBJZTxzQz-4" value="4" style="text;html=1;align=center;verticalAlign=middle;whiteSpace=wrap;rounded=0;fillColor=#dae8fc;strokeColor=#6c8ebf;fontSize=14;fontColor=#333333;" vertex="1" parent="clmwfE0K63QgBJZTxzQz-1">
          <mxGeometry x="60" y="60" width="40" height="40" as="geometry" />
        </mxCell>
        <mxCell id="clmwfE0K63QgBJZTxzQz-6" value="list1" style="text;html=1;align=center;verticalAlign=middle;whiteSpace=wrap;rounded=0;fontSize=10;" vertex="1" parent="clmwfE0K63QgBJZTxzQz-1">
          <mxGeometry x="60" y="100" width="40" height="20" as="geometry" />
        </mxCell>
        <mxCell id="clmwfE0K63QgBJZTxzQz-7" style="edgeStyle=orthogonalEdgeStyle;rounded=0;orthogonalLoop=1;jettySize=auto;html=1;exitX=1;exitY=0.5;exitDx=0;exitDy=0;entryX=0;entryY=0.5;entryDx=0;entryDy=0;fillColor=#f5f5f5;strokeColor=#666666;strokeWidth=2;" edge="1" parent="clmwfE0K63QgBJZTxzQz-1" source="clmwfE0K63QgBJZTxzQz-8" target="clmwfE0K63QgBJZTxzQz-9">
          <mxGeometry relative="1" as="geometry" />
        </mxCell>
        <mxCell id="clmwfE0K63QgBJZTxzQz-8" value="3" style="text;html=1;align=center;verticalAlign=middle;whiteSpace=wrap;rounded=0;fillColor=#d5e8d4;strokeColor=#82b366;fontSize=14;fontColor=#333333;" vertex="1" parent="clmwfE0K63QgBJZTxzQz-1">
          <mxGeometry x="60" y="140" width="40" height="40" as="geometry" />
        </mxCell>
        <mxCell id="clmwfE0K63QgBJZTxzQz-9" value="4" style="text;html=1;align=center;verticalAlign=middle;whiteSpace=wrap;rounded=0;fillColor=#f5f5f5;strokeColor=#666666;fontSize=14;fontColor=#333333;" vertex="1" parent="clmwfE0K63QgBJZTxzQz-1">
          <mxGeometry x="120" y="140" width="40" height="40" as="geometry" />
        </mxCell>
        <mxCell id="clmwfE0K63QgBJZTxzQz-10" value="list2" style="text;html=1;align=center;verticalAlign=middle;whiteSpace=wrap;rounded=0;fontSize=10;" vertex="1" parent="clmwfE0K63QgBJZTxzQz-1">
          <mxGeometry x="60" y="180" width="100" height="20" as="geometry" />
        </mxCell>
        <mxCell id="clmwfE0K63QgBJZTxzQz-11" value="1" style="text;html=1;align=center;verticalAlign=middle;whiteSpace=wrap;rounded=0;fillColor=#f5f5f5;strokeColor=#666666;fontSize=14;fontColor=#333333;" vertex="1" parent="clmwfE0K63QgBJZTxzQz-1">
          <mxGeometry x="60" y="220" width="40" height="40" as="geometry" />
        </mxCell>
        <mxCell id="clmwfE0K63QgBJZTxzQz-12" value="root" style="text;html=1;align=center;verticalAlign=middle;whiteSpace=wrap;rounded=0;fontSize=10;" vertex="1" parent="clmwfE0K63QgBJZTxzQz-1">
          <mxGeometry x="60" y="260" width="220" height="20" as="geometry" />
        </mxCell>
        <mxCell id="clmwfE0K63QgBJZTxzQz-13" value="1" style="text;html=1;align=center;verticalAlign=middle;whiteSpace=wrap;rounded=0;fillColor=#f5f5f5;strokeColor=#666666;fontSize=14;fontColor=#333333;" vertex="1" parent="clmwfE0K63QgBJZTxzQz-1">
          <mxGeometry x="120" y="220" width="40" height="40" as="geometry" />
        </mxCell>
        <mxCell id="clmwfE0K63QgBJZTxzQz-14" style="edgeStyle=orthogonalEdgeStyle;rounded=0;orthogonalLoop=1;jettySize=auto;html=1;exitX=1;exitY=0.5;exitDx=0;exitDy=0;fillColor=#f5f5f5;strokeColor=#666666;strokeWidth=2;entryX=0;entryY=0.5;entryDx=0;entryDy=0;" edge="1" parent="clmwfE0K63QgBJZTxzQz-1" source="clmwfE0K63QgBJZTxzQz-11" target="clmwfE0K63QgBJZTxzQz-13">
          <mxGeometry relative="1" as="geometry">
            <mxPoint x="110" y="170" as="sourcePoint" />
            <mxPoint x="110" y="210" as="targetPoint" />
          </mxGeometry>
        </mxCell>
        <mxCell id="clmwfE0K63QgBJZTxzQz-15" value="2" style="text;html=1;align=center;verticalAlign=middle;whiteSpace=wrap;rounded=0;fillColor=#f5f5f5;strokeColor=#666666;fontSize=14;fontColor=#333333;" vertex="1" parent="clmwfE0K63QgBJZTxzQz-1">
          <mxGeometry x="180" y="220" width="40" height="40" as="geometry" />
        </mxCell>
        <mxCell id="clmwfE0K63QgBJZTxzQz-16" style="edgeStyle=orthogonalEdgeStyle;rounded=0;orthogonalLoop=1;jettySize=auto;html=1;fillColor=#f5f5f5;strokeColor=#666666;strokeWidth=2;entryX=0;entryY=0.5;entryDx=0;entryDy=0;exitX=1;exitY=0.5;exitDx=0;exitDy=0;" edge="1" parent="clmwfE0K63QgBJZTxzQz-1" source="clmwfE0K63QgBJZTxzQz-13" target="clmwfE0K63QgBJZTxzQz-15">
          <mxGeometry relative="1" as="geometry">
            <mxPoint x="170" y="250" as="sourcePoint" />
            <mxPoint x="130" y="250" as="targetPoint" />
          </mxGeometry>
        </mxCell>
        <mxCell id="IkyPmD7WuQSrqk3YRfKl-0" value="3" style="text;html=1;align=center;verticalAlign=middle;whiteSpace=wrap;rounded=0;fillColor=#d5e8d4;strokeColor=#82b366;fontSize=14;fontColor=#333333;" vertex="1" parent="clmwfE0K63QgBJZTxzQz-1">
          <mxGeometry x="240" y="220" width="40" height="40" as="geometry" />
        </mxCell>
        <mxCell id="IkyPmD7WuQSrqk3YRfKl-1" style="edgeStyle=orthogonalEdgeStyle;rounded=0;orthogonalLoop=1;jettySize=auto;html=1;fillColor=#f5f5f5;strokeColor=#666666;strokeWidth=2;entryX=0;entryY=0.5;entryDx=0;entryDy=0;exitX=1;exitY=0.5;exitDx=0;exitDy=0;" edge="1" parent="clmwfE0K63QgBJZTxzQz-1" source="clmwfE0K63QgBJZTxzQz-15" target="IkyPmD7WuQSrqk3YRfKl-0">
          <mxGeometry relative="1" as="geometry">
            <mxPoint x="230" y="251" as="sourcePoint" />
            <mxPoint x="190" y="250" as="targetPoint" />
          </mxGeometry>
        </mxCell>
      </root>
    </mxGraphModel>
  </diagram>
  <diagram name="5" id="ToqQ7OI4ski-VRpGB41H">
    <mxGraphModel dx="529" dy="666" grid="1" gridSize="10" guides="1" tooltips="1" connect="1" arrows="1" fold="1" page="1" pageScale="1" pageWidth="380" pageHeight="320" math="0" shadow="0">
      <root>
        <mxCell id="kZERJ2bYqomY9TrKXP6C-0" />
        <mxCell id="kZERJ2bYqomY9TrKXP6C-1" parent="kZERJ2bYqomY9TrKXP6C-0" />
        <mxCell id="kZERJ2bYqomY9TrKXP6C-2" style="edgeStyle=orthogonalEdgeStyle;rounded=0;orthogonalLoop=1;jettySize=auto;html=1;exitX=0.5;exitY=0;exitDx=0;exitDy=0;entryX=0.5;entryY=0;entryDx=0;entryDy=0;fillColor=#d5e8d4;strokeColor=#82b366;" edge="1" parent="kZERJ2bYqomY9TrKXP6C-1" source="kZERJ2bYqomY9TrKXP6C-3" target="D1mPOTwBjTe1wBQIFL57-0">
          <mxGeometry relative="1" as="geometry">
            <Array as="points">
              <mxPoint x="80" y="40" />
              <mxPoint x="40" y="40" />
              <mxPoint x="40" y="200" />
              <mxPoint x="320" y="200" />
            </Array>
          </mxGeometry>
        </mxCell>
        <mxCell id="kZERJ2bYqomY9TrKXP6C-3" value="4" style="text;html=1;align=center;verticalAlign=middle;whiteSpace=wrap;rounded=0;fillColor=#d5e8d4;strokeColor=#82b366;fontSize=14;fontColor=#333333;" vertex="1" parent="kZERJ2bYqomY9TrKXP6C-1">
          <mxGeometry x="60" y="60" width="40" height="40" as="geometry" />
        </mxCell>
        <mxCell id="kZERJ2bYqomY9TrKXP6C-4" value="list1" style="text;html=1;align=center;verticalAlign=middle;whiteSpace=wrap;rounded=0;fontSize=10;" vertex="1" parent="kZERJ2bYqomY9TrKXP6C-1">
          <mxGeometry x="60" y="100" width="40" height="20" as="geometry" />
        </mxCell>
        <mxCell id="kZERJ2bYqomY9TrKXP6C-6" value="4" style="text;html=1;align=center;verticalAlign=middle;whiteSpace=wrap;rounded=0;fillColor=#dae8fc;strokeColor=#6c8ebf;fontSize=14;fontColor=#333333;" vertex="1" parent="kZERJ2bYqomY9TrKXP6C-1">
          <mxGeometry x="60" y="140" width="40" height="40" as="geometry" />
        </mxCell>
        <mxCell id="kZERJ2bYqomY9TrKXP6C-8" value="list2" style="text;html=1;align=center;verticalAlign=middle;whiteSpace=wrap;rounded=0;fontSize=10;" vertex="1" parent="kZERJ2bYqomY9TrKXP6C-1">
          <mxGeometry x="60" y="180" width="40" height="20" as="geometry" />
        </mxCell>
        <mxCell id="kZERJ2bYqomY9TrKXP6C-9" value="1" style="text;html=1;align=center;verticalAlign=middle;whiteSpace=wrap;rounded=0;fillColor=#f5f5f5;strokeColor=#666666;fontSize=14;fontColor=#333333;" vertex="1" parent="kZERJ2bYqomY9TrKXP6C-1">
          <mxGeometry x="60" y="220" width="40" height="40" as="geometry" />
        </mxCell>
        <mxCell id="kZERJ2bYqomY9TrKXP6C-10" value="root" style="text;html=1;align=center;verticalAlign=middle;whiteSpace=wrap;rounded=0;fontSize=10;" vertex="1" parent="kZERJ2bYqomY9TrKXP6C-1">
          <mxGeometry x="60" y="260" width="280" height="20" as="geometry" />
        </mxCell>
        <mxCell id="kZERJ2bYqomY9TrKXP6C-11" value="1" style="text;html=1;align=center;verticalAlign=middle;whiteSpace=wrap;rounded=0;fillColor=#f5f5f5;strokeColor=#666666;fontSize=14;fontColor=#333333;" vertex="1" parent="kZERJ2bYqomY9TrKXP6C-1">
          <mxGeometry x="120" y="220" width="40" height="40" as="geometry" />
        </mxCell>
        <mxCell id="kZERJ2bYqomY9TrKXP6C-12" style="edgeStyle=orthogonalEdgeStyle;rounded=0;orthogonalLoop=1;jettySize=auto;html=1;exitX=1;exitY=0.5;exitDx=0;exitDy=0;fillColor=#f5f5f5;strokeColor=#666666;strokeWidth=2;entryX=0;entryY=0.5;entryDx=0;entryDy=0;" edge="1" parent="kZERJ2bYqomY9TrKXP6C-1" source="kZERJ2bYqomY9TrKXP6C-9" target="kZERJ2bYqomY9TrKXP6C-11">
          <mxGeometry relative="1" as="geometry">
            <mxPoint x="110" y="170" as="sourcePoint" />
            <mxPoint x="110" y="210" as="targetPoint" />
          </mxGeometry>
        </mxCell>
        <mxCell id="kZERJ2bYqomY9TrKXP6C-13" value="2" style="text;html=1;align=center;verticalAlign=middle;whiteSpace=wrap;rounded=0;fillColor=#f5f5f5;strokeColor=#666666;fontSize=14;fontColor=#333333;" vertex="1" parent="kZERJ2bYqomY9TrKXP6C-1">
          <mxGeometry x="180" y="220" width="40" height="40" as="geometry" />
        </mxCell>
        <mxCell id="kZERJ2bYqomY9TrKXP6C-14" style="edgeStyle=orthogonalEdgeStyle;rounded=0;orthogonalLoop=1;jettySize=auto;html=1;fillColor=#f5f5f5;strokeColor=#666666;strokeWidth=2;entryX=0;entryY=0.5;entryDx=0;entryDy=0;exitX=1;exitY=0.5;exitDx=0;exitDy=0;" edge="1" parent="kZERJ2bYqomY9TrKXP6C-1" source="kZERJ2bYqomY9TrKXP6C-11" target="kZERJ2bYqomY9TrKXP6C-13">
          <mxGeometry relative="1" as="geometry">
            <mxPoint x="170" y="250" as="sourcePoint" />
            <mxPoint x="130" y="250" as="targetPoint" />
          </mxGeometry>
        </mxCell>
        <mxCell id="kZERJ2bYqomY9TrKXP6C-15" value="3" style="text;html=1;align=center;verticalAlign=middle;whiteSpace=wrap;rounded=0;fillColor=#f5f5f5;strokeColor=#666666;fontSize=14;fontColor=#333333;" vertex="1" parent="kZERJ2bYqomY9TrKXP6C-1">
          <mxGeometry x="240" y="220" width="40" height="40" as="geometry" />
        </mxCell>
        <mxCell id="kZERJ2bYqomY9TrKXP6C-16" style="edgeStyle=orthogonalEdgeStyle;rounded=0;orthogonalLoop=1;jettySize=auto;html=1;fillColor=#f5f5f5;strokeColor=#666666;strokeWidth=2;entryX=0;entryY=0.5;entryDx=0;entryDy=0;exitX=1;exitY=0.5;exitDx=0;exitDy=0;" edge="1" parent="kZERJ2bYqomY9TrKXP6C-1" source="kZERJ2bYqomY9TrKXP6C-13" target="kZERJ2bYqomY9TrKXP6C-15">
          <mxGeometry relative="1" as="geometry">
            <mxPoint x="230" y="251" as="sourcePoint" />
            <mxPoint x="190" y="250" as="targetPoint" />
          </mxGeometry>
        </mxCell>
        <mxCell id="D1mPOTwBjTe1wBQIFL57-0" value="4" style="text;html=1;align=center;verticalAlign=middle;whiteSpace=wrap;rounded=0;fillColor=#d5e8d4;strokeColor=#82b366;fontSize=14;fontColor=#333333;" vertex="1" parent="kZERJ2bYqomY9TrKXP6C-1">
          <mxGeometry x="300" y="220" width="40" height="40" as="geometry" />
        </mxCell>
        <mxCell id="34v2CIZhdtFdWAJ3U4Ht-0" style="edgeStyle=orthogonalEdgeStyle;rounded=0;orthogonalLoop=1;jettySize=auto;html=1;fillColor=#f5f5f5;strokeColor=#666666;strokeWidth=2;entryX=0;entryY=0.5;entryDx=0;entryDy=0;exitX=1;exitY=0.5;exitDx=0;exitDy=0;" edge="1" parent="kZERJ2bYqomY9TrKXP6C-1" source="kZERJ2bYqomY9TrKXP6C-15" target="D1mPOTwBjTe1wBQIFL57-0">
          <mxGeometry relative="1" as="geometry">
            <mxPoint x="290" y="250" as="sourcePoint" />
            <mxPoint x="250" y="250" as="targetPoint" />
          </mxGeometry>
        </mxCell>
      </root>
    </mxGraphModel>
  </diagram>
  <diagram name="6" id="oVEjGhzmgWMKr1t2dDKd">
    <mxGraphModel dx="411" dy="516" grid="1" gridSize="10" guides="1" tooltips="1" connect="1" arrows="1" fold="1" page="1" pageScale="1" pageWidth="440" pageHeight="240" math="0" shadow="0">
      <root>
        <mxCell id="fhI1hsiwJ3MSP1fVTn3R-0" />
        <mxCell id="fhI1hsiwJ3MSP1fVTn3R-1" parent="fhI1hsiwJ3MSP1fVTn3R-0" />
        <mxCell id="fhI1hsiwJ3MSP1fVTn3R-2" style="edgeStyle=orthogonalEdgeStyle;rounded=0;orthogonalLoop=1;jettySize=auto;html=1;exitX=0.5;exitY=0;exitDx=0;exitDy=0;entryX=0.5;entryY=0;entryDx=0;entryDy=0;fillColor=#dae8fc;strokeColor=#6c8ebf;" edge="1" parent="fhI1hsiwJ3MSP1fVTn3R-1" source="fhI1hsiwJ3MSP1fVTn3R-5" target="-43uTaEsG_2IodQOD860-0">
          <mxGeometry relative="1" as="geometry">
            <Array as="points">
              <mxPoint x="80" y="40" />
              <mxPoint x="40" y="40" />
              <mxPoint x="40" y="120" />
              <mxPoint x="380" y="120" />
            </Array>
          </mxGeometry>
        </mxCell>
        <mxCell id="fhI1hsiwJ3MSP1fVTn3R-5" value="4" style="text;html=1;align=center;verticalAlign=middle;whiteSpace=wrap;rounded=0;fillColor=#dae8fc;strokeColor=#6c8ebf;fontSize=14;fontColor=#333333;" vertex="1" parent="fhI1hsiwJ3MSP1fVTn3R-1">
          <mxGeometry x="60" y="60" width="40" height="40" as="geometry" />
        </mxCell>
        <mxCell id="fhI1hsiwJ3MSP1fVTn3R-6" value="list2" style="text;html=1;align=center;verticalAlign=middle;whiteSpace=wrap;rounded=0;fontSize=10;" vertex="1" parent="fhI1hsiwJ3MSP1fVTn3R-1">
          <mxGeometry x="60" y="100" width="40" height="20" as="geometry" />
        </mxCell>
        <mxCell id="fhI1hsiwJ3MSP1fVTn3R-7" value="1" style="text;html=1;align=center;verticalAlign=middle;whiteSpace=wrap;rounded=0;fillColor=#f5f5f5;strokeColor=#666666;fontSize=14;fontColor=#333333;" vertex="1" parent="fhI1hsiwJ3MSP1fVTn3R-1">
          <mxGeometry x="60" y="140" width="40" height="40" as="geometry" />
        </mxCell>
        <mxCell id="fhI1hsiwJ3MSP1fVTn3R-8" value="root" style="text;html=1;align=center;verticalAlign=middle;whiteSpace=wrap;rounded=0;fontSize=10;" vertex="1" parent="fhI1hsiwJ3MSP1fVTn3R-1">
          <mxGeometry x="60" y="180" width="340" height="20" as="geometry" />
        </mxCell>
        <mxCell id="fhI1hsiwJ3MSP1fVTn3R-9" value="1" style="text;html=1;align=center;verticalAlign=middle;whiteSpace=wrap;rounded=0;fillColor=#f5f5f5;strokeColor=#666666;fontSize=14;fontColor=#333333;" vertex="1" parent="fhI1hsiwJ3MSP1fVTn3R-1">
          <mxGeometry x="120" y="140" width="40" height="40" as="geometry" />
        </mxCell>
        <mxCell id="fhI1hsiwJ3MSP1fVTn3R-10" style="edgeStyle=orthogonalEdgeStyle;rounded=0;orthogonalLoop=1;jettySize=auto;html=1;exitX=1;exitY=0.5;exitDx=0;exitDy=0;fillColor=#f5f5f5;strokeColor=#666666;strokeWidth=2;entryX=0;entryY=0.5;entryDx=0;entryDy=0;" edge="1" parent="fhI1hsiwJ3MSP1fVTn3R-1" source="fhI1hsiwJ3MSP1fVTn3R-7" target="fhI1hsiwJ3MSP1fVTn3R-9">
          <mxGeometry relative="1" as="geometry">
            <mxPoint x="110" y="90" as="sourcePoint" />
            <mxPoint x="110" y="130" as="targetPoint" />
          </mxGeometry>
        </mxCell>
        <mxCell id="fhI1hsiwJ3MSP1fVTn3R-11" value="2" style="text;html=1;align=center;verticalAlign=middle;whiteSpace=wrap;rounded=0;fillColor=#f5f5f5;strokeColor=#666666;fontSize=14;fontColor=#333333;" vertex="1" parent="fhI1hsiwJ3MSP1fVTn3R-1">
          <mxGeometry x="180" y="140" width="40" height="40" as="geometry" />
        </mxCell>
        <mxCell id="fhI1hsiwJ3MSP1fVTn3R-12" style="edgeStyle=orthogonalEdgeStyle;rounded=0;orthogonalLoop=1;jettySize=auto;html=1;fillColor=#f5f5f5;strokeColor=#666666;strokeWidth=2;entryX=0;entryY=0.5;entryDx=0;entryDy=0;exitX=1;exitY=0.5;exitDx=0;exitDy=0;" edge="1" parent="fhI1hsiwJ3MSP1fVTn3R-1" source="fhI1hsiwJ3MSP1fVTn3R-9" target="fhI1hsiwJ3MSP1fVTn3R-11">
          <mxGeometry relative="1" as="geometry">
            <mxPoint x="170" y="170" as="sourcePoint" />
            <mxPoint x="130" y="170" as="targetPoint" />
          </mxGeometry>
        </mxCell>
        <mxCell id="fhI1hsiwJ3MSP1fVTn3R-13" value="3" style="text;html=1;align=center;verticalAlign=middle;whiteSpace=wrap;rounded=0;fillColor=#f5f5f5;strokeColor=#666666;fontSize=14;fontColor=#333333;" vertex="1" parent="fhI1hsiwJ3MSP1fVTn3R-1">
          <mxGeometry x="240" y="140" width="40" height="40" as="geometry" />
        </mxCell>
        <mxCell id="fhI1hsiwJ3MSP1fVTn3R-14" style="edgeStyle=orthogonalEdgeStyle;rounded=0;orthogonalLoop=1;jettySize=auto;html=1;fillColor=#f5f5f5;strokeColor=#666666;strokeWidth=2;entryX=0;entryY=0.5;entryDx=0;entryDy=0;exitX=1;exitY=0.5;exitDx=0;exitDy=0;" edge="1" parent="fhI1hsiwJ3MSP1fVTn3R-1" source="fhI1hsiwJ3MSP1fVTn3R-11" target="fhI1hsiwJ3MSP1fVTn3R-13">
          <mxGeometry relative="1" as="geometry">
            <mxPoint x="230" y="171" as="sourcePoint" />
            <mxPoint x="190" y="170" as="targetPoint" />
          </mxGeometry>
        </mxCell>
        <mxCell id="fhI1hsiwJ3MSP1fVTn3R-15" value="4" style="text;html=1;align=center;verticalAlign=middle;whiteSpace=wrap;rounded=0;fillColor=#f5f5f5;strokeColor=#666666;fontSize=14;fontColor=#333333;" vertex="1" parent="fhI1hsiwJ3MSP1fVTn3R-1">
          <mxGeometry x="300" y="140" width="40" height="40" as="geometry" />
        </mxCell>
        <mxCell id="fhI1hsiwJ3MSP1fVTn3R-16" style="edgeStyle=orthogonalEdgeStyle;rounded=0;orthogonalLoop=1;jettySize=auto;html=1;fillColor=#f5f5f5;strokeColor=#666666;strokeWidth=2;entryX=0;entryY=0.5;entryDx=0;entryDy=0;exitX=1;exitY=0.5;exitDx=0;exitDy=0;" edge="1" parent="fhI1hsiwJ3MSP1fVTn3R-1" source="fhI1hsiwJ3MSP1fVTn3R-13" target="fhI1hsiwJ3MSP1fVTn3R-15">
          <mxGeometry relative="1" as="geometry">
            <mxPoint x="290" y="170" as="sourcePoint" />
            <mxPoint x="250" y="170" as="targetPoint" />
          </mxGeometry>
        </mxCell>
        <mxCell id="-43uTaEsG_2IodQOD860-0" value="4" style="text;html=1;align=center;verticalAlign=middle;whiteSpace=wrap;rounded=0;fillColor=#dae8fc;strokeColor=#6c8ebf;fontSize=14;fontColor=#333333;" vertex="1" parent="fhI1hsiwJ3MSP1fVTn3R-1">
          <mxGeometry x="360" y="140" width="40" height="40" as="geometry" />
        </mxCell>
        <mxCell id="-43uTaEsG_2IodQOD860-1" style="edgeStyle=orthogonalEdgeStyle;rounded=0;orthogonalLoop=1;jettySize=auto;html=1;fillColor=#f5f5f5;strokeColor=#666666;strokeWidth=2;entryX=0;entryY=0.5;entryDx=0;entryDy=0;exitX=1;exitY=0.5;exitDx=0;exitDy=0;" edge="1" parent="fhI1hsiwJ3MSP1fVTn3R-1" source="fhI1hsiwJ3MSP1fVTn3R-15" target="-43uTaEsG_2IodQOD860-0">
          <mxGeometry relative="1" as="geometry">
            <mxPoint x="350" y="170" as="sourcePoint" />
            <mxPoint x="310" y="170" as="targetPoint" />
          </mxGeometry>
        </mxCell>
      </root>
    </mxGraphModel>
  </diagram>
</mxfile>
